<?xml version="1.0" standalone="no"?><!DOCTYPE svg PUBLIC "-//W3C//DTD SVG 1.1//EN" "http://www.w3.org/Graphics/SVG/1.1/DTD/svg11.dtd"><svg t="1764923526639" class="icon" viewBox="0 0 1260 1024" version="1.1" xmlns="http://www.w3.org/2000/svg" p-id="6492" xmlns:xlink="http://www.w3.org/1999/xlink" width="246.09375" height="200"><path d="M116.4921875 779.72836508m60.84735594 1e-8l365.08413414 0q60.84735594 0 60.84735595 60.84735594l0 0q0 60.84735594-60.84735594 60.84735595l-365.08413415 0q-60.84735594 0-60.84735594-60.84735595l0 0q0-60.84735594 60.84735594-60.84735594Z" fill="#000000" p-id="6493"></path><path d="M1029.20252439 171.25480793v78.91902019H317.28846189V840.57572103H299.03425457a60.84735594 60.84735594 0 0 1-60.84735518-60.84735595V232.1021631a60.84735594 60.84735594 0 0 1 60.84735518-60.84735517h730.16826982z" fill="#000000" p-id="6494"></path><path d="M1029.20252439 353.796875a60.84735594 60.84735594 0 0 1 60.84735518 60.84735594v425.93149009a60.84735594 60.84735594 0 0 1-60.84735518 60.84735595h-243.38942379a60.84735594 60.84735594 0 0 1-60.84735517-60.84735595V414.64423094a60.84735594 60.84735594 0 0 1 60.84735517-60.84735594h243.38942379z m-18.25420732 79.1015625h-206.88100914v389.42307698h206.88100914V432.8984375z" fill="#000000" p-id="6495"></path><path d="M785.81310061 779.72836508h243.38942379v121.6947119h-243.38942379z" fill="#000000" p-id="6496"></path></svg>