<?xml version="1.0" standalone="no"?><!DOCTYPE svg PUBLIC "-//W3C//DTD SVG 1.1//EN" "http://www.w3.org/Graphics/SVG/1.1/DTD/svg11.dtd"><svg t="1764918874225" class="icon" viewBox="0 0 1024 1024" version="1.1" xmlns="http://www.w3.org/2000/svg" p-id="9229" xmlns:xlink="http://www.w3.org/1999/xlink" width="200" height="200"><path d="M914.1248 289.0752l-230.4-230.4A25.6 25.6 0 0 0 665.6 51.2H179.2C136.8576 51.2 102.4 85.6576 102.4 128v819.2c0 42.3424 34.4576 76.8 76.8 76.8h665.6c42.3424 0 76.8-34.4576 76.8-76.8V307.2a25.8048 25.8048 0 0 0-7.4752-18.1248zM859.8016 307.2H691.2a25.6 25.6 0 0 1-25.6-25.6V112.9984L859.8016 307.2zM870.4 947.2a25.6 25.6 0 0 1-25.6 25.6h-665.6a25.6 25.6 0 0 1-25.6-25.6v-819.2a25.6 25.6 0 0 1 25.6-25.6H614.4v179.2c0 42.3424 34.4576 76.8 76.8 76.8H870.4v588.8z" fill="#2c2c2c" p-id="9230"></path></svg>