<?xml version="1.0" standalone="no"?><!DOCTYPE svg PUBLIC "-//W3C//DTD SVG 1.1//EN" "http://www.w3.org/Graphics/SVG/1.1/DTD/svg11.dtd"><svg t="1764918703172" class="icon" viewBox="0 0 1024 1024" version="1.1" xmlns="http://www.w3.org/2000/svg" p-id="4494" xmlns:xlink="http://www.w3.org/1999/xlink" width="200" height="200"><path d="M395.52 723.3536h-134.144a31.488 31.488 0 0 1-30.976-32c0-17.6128 13.824-31.9488 30.976-31.9488h22.7328V469.76c0-119.04 85.7088-217.3952 196.9152-232.96v-25.6c0-17.664 13.824-32 30.976-32 17.1008 0 30.976 14.336 30.976 31.9488v25.6c111.2064 15.616 196.9152 113.9712 196.9152 232.96v189.696h22.7328c17.1008 0 30.976 14.336 30.976 31.9488 0 17.664-13.824 32-30.976 32h-134.144C614.8096 776.4992 567.808 815.616 512 815.616c-55.808 0-102.8096-39.168-116.48-92.3136z m66.816 0c10.3424 17.0496 28.672 28.416 49.664 28.416 20.992 0 39.3216-11.3664 49.664-28.416H462.336z m215.552-63.9488V469.76c0-94.5664-74.24-171.2128-165.888-171.2128-91.648 0-165.888 76.6464-165.888 171.2128v189.6448h331.776z" fill="#2c2c2c" p-id="4495"></path></svg>